# https://github.com/mikedh/trimesh

o trunk
v -0.05848400 0.59605002 -0.04822300
v -0.08842000 0.58954001 0.00446900
v -0.05817700 0.59267998 0.05728600
v 0.00201000 0.60231000 0.05741800
v 0.03193800 0.60882002 0.00472200
v 0.00169500 0.60569000 -0.04809600
v 0.00169500 0.60569000 -0.04809600
v 0.00895100 0.78166002 -0.03836400
v 0.00895100 0.78166002 -0.03836400
v -0.05286100 0.78521001 -0.03166200
v -0.06565000 0.78496999 0.02928900
v -0.01174800 0.78127003 0.06024800
v 0.03436300 0.77923000 0.01844200
v -0.03918200 0.96366000 -0.01383500
v -0.05042700 0.96050000 0.03886300
v -0.00375300 0.95626998 0.06566000
v 0.03634100 0.95681000 0.02951500
v 0.01444300 0.96138000 -0.01961600
v 0.01444300 0.96138000 -0.01961600
v -0.03043400 1.12943995 -0.02208600
v -0.03996300 1.13311005 0.02373900
v 0.00078800 1.13365996 0.04703500
v 0.03550500 1.13032997 0.01560300
v 0.01620600 1.12772000 -0.02710900
v 0.01620600 1.12772000 -0.02710900
v 0.00639000 1.29468000 -0.03510800
v 0.00639000 1.29468000 -0.03510800
v -0.04068300 1.29364002 -0.02211400
v -0.02782000 1.29776001 0.02482600
v 0.01925400 1.29879999 0.01183200
v -0.07345400 1.44538999 -0.02901400
v -0.06270700 1.45047998 0.01093100
v -0.02364100 1.45922005 -0.00069300
v -0.03439700 1.45413005 -0.04064300
v -0.03439700 1.45413005 -0.04064300
v 0.04784500 0.00000000 -0.08287000
v 0.04784500 0.00000000 -0.08287000
v -0.02476500 0.00000000 -0.09242500
v 0.04110000 0.20999999 -0.07118700
v 0.04110000 0.20999999 -0.07118700
v -0.08287000 0.00000000 -0.04784500
v -0.03003400 0.20999999 -0.07651900
v -0.09242500 0.00000000 0.02476500
v -0.07854800 0.20999999 -0.02423000
v -0.04784500 0.00000000 0.08287000
v -0.06791200 0.20999999 0.04630800
v 0.02476500 0.00000000 0.09242500
v -0.00614800 0.20999999 0.08196800
v 0.08287000 0.00000000 0.04784500
v 0.06025800 0.20999999 0.05591000
v 0.09242500 0.00000000 -0.02476500
v 0.08128400 0.20999999 -0.01224900
v 0.03721500 0.40998000 -0.06259900
v 0.03721500 0.40998000 -0.06259900
v -0.03331100 0.41066000 -0.06260300
v -0.06857600 0.41146001 -0.00152200
v -0.03331500 0.41158000 0.05956300
v 0.03721200 0.41090000 0.05956700
v 0.07247700 0.41009000 -0.00151400
v -0.05848400 0.59605002 -0.04822300
v -0.08842000 0.58954001 0.00446900
v -0.05817700 0.59267998 0.05728600
v 0.00201000 0.60231000 0.05741800
v 0.03193800 0.60882002 0.00472200
v 0.00169500 0.60569000 -0.04809600
v 0.00169500 0.60569000 -0.04809600
v -0.18026000 0.92215002 -0.08592100
v -0.19121399 0.92198002 -0.03448700
v -0.14783201 0.93659002 -0.00858700
v -0.11007100 0.94577998 -0.04401200
v -0.13010400 0.93686002 -0.09181300
v -0.13010400 0.93686002 -0.09181300
v -0.20600100 1.09749997 -0.06953600
v -0.20600100 1.09749997 -0.06953600
v -0.25288600 1.07467997 -0.05534800
v -0.23782800 1.07597995 -0.00346900
v -0.19094300 1.09879994 -0.01765700
v -0.28965700 1.23613000 -0.01830000
v -0.27453500 1.23067999 0.02474800
v -0.23259900 1.24421000 0.01173300
v -0.24772000 1.24967003 -0.03131600
v -0.24772000 1.24967003 -0.03131600
v -0.32312301 1.38417995 -0.00233400
v -0.31124401 1.38367999 0.03517000
v -0.27500299 1.39398003 0.02382000
v -0.28688300 1.39447999 -0.01368500
v -0.28688300 1.39447999 -0.01368500
v -0.34915999 1.53022003 0.01718200
v -0.33864301 1.52844000 0.04924600
v -0.30722600 1.53600001 0.03937200
v -0.31773800 1.53778005 0.00729900
v -0.31773800 1.53778005 0.00729900
v -0.34683999 1.67393994 0.03548400
v -0.34683999 1.67393994 0.03548400
v -0.37555000 1.66473997 0.05401100
v -0.34430599 1.66804004 0.07029500
v -0.18026000 0.92215002 -0.08592100
v -0.19121399 0.92198002 -0.03448700
v -0.14783201 0.93659002 -0.00858700
v -0.11007100 0.94577998 -0.04401200
v -0.13010400 0.93686002 -0.09181300
v -0.13010400 0.93686002 -0.09181300
v -0.11295200 1.08354998 -0.13028100
v -0.11295200 1.08354998 -0.13028100
v -0.16523600 1.09264004 -0.11998300
v -0.15289600 1.10588002 -0.06903700
v -0.10060700 1.09678996 -0.07934400
v -0.14388301 1.25036001 -0.15940800
v -0.13336401 1.26102996 -0.11550700
v -0.08844300 1.25382996 -0.12451300
v -0.09895300 1.24315000 -0.16840901
v -0.09895300 1.24315000 -0.16840901
v -0.12970900 1.40155005 -0.19707800
v -0.12067400 1.41093004 -0.15950701
v -0.08204800 1.40616000 -0.16760901
v -0.09107900 1.39678001 -0.20516700
v -0.09107900 1.39678001 -0.20516700
v -0.10586500 1.54767001 -0.23403700
v -0.09820900 1.55523002 -0.20191599
v -0.06552400 1.54896998 -0.20822900
v -0.07317900 1.54140997 -0.24034999
v -0.07317900 1.54140997 -0.24034999
v -0.57426798 2.58271003 -0.20059900
v -0.56461602 2.58537006 -0.19629700
v -0.56565702 2.58425999 -0.20709400
v -0.56565702 2.58425999 -0.20709400
v -0.62638998 2.66924000 -0.18634000
v -0.61887199 2.67321992 -0.18262300
v -0.62038398 2.67378998 -0.19176300
v -0.62038398 2.67378998 -0.19176300
v -0.67255902 2.75548005 -0.16991401
v -0.66579598 2.75854993 -0.16674800
v -0.66724300 2.75928998 -0.17466199
v -0.66724300 2.75928998 -0.17466199
v -0.71875900 2.83734989 -0.15707301
v -0.71309000 2.84016991 -0.15433200
v -0.71422303 2.84060001 -0.16112900
v -0.71422303 2.84060001 -0.16112900
v -0.77913302 2.90357995 -0.15492199
v -0.77512401 2.90719008 -0.15244600
v -0.77562499 2.90691996 -0.15835799
v -0.77562499 2.90691996 -0.15835799
v -0.84408897 2.96063995 -0.14547500
v -0.84087998 2.96396995 -0.14333300
v -0.84158897 2.96399999 -0.14838401
v -0.84158897 2.96399999 -0.14838401
v -0.61360198 2.78007007 -0.22808901
v -0.60656202 2.78239989 -0.22498301
v -0.60727400 2.78125000 -0.23291101
v -0.60727400 2.78125000 -0.23291101
v -0.64877701 2.86425996 -0.25674599
v -0.64315498 2.86747003 -0.25434300
v -0.64331102 2.86519003 -0.26085299
v -0.64331102 2.86519003 -0.26085299
v -0.68239802 2.94646001 -0.28149199
v -0.67747599 2.94915009 -0.27937701
v -0.67768401 2.94734001 -0.28509799
v -0.67768401 2.94734001 -0.28509799
v -0.71083999 3.02521992 -0.30961001
v -0.70658201 3.02744007 -0.30776399
v -0.70668203 3.02568007 -0.31259000
v -0.70668203 3.02568007 -0.31259000
v -0.74857700 3.09735990 -0.33378699
v -0.74510997 3.09967995 -0.33235201
v -0.74521399 3.09822989 -0.33651099
v -0.74521399 3.09822989 -0.33651099
v -0.77377403 3.16944003 -0.36348501
v -0.77035099 3.17126012 -0.36199301
v -0.77034903 3.16967010 -0.36583701
v -0.77034903 3.16967010 -0.36583701
v -0.87784702 2.59699011 -0.43814400
v -0.87321502 2.60276008 -0.43544701
v -0.87150699 2.59921002 -0.44226599
v -0.87150699 2.59921002 -0.44226599
v -0.92442900 2.66558003 -0.48918199
v -0.92023402 2.67035007 -0.48666799
v -0.91864002 2.66711998 -0.49246800
v -0.91864002 2.66711998 -0.49246800
v -0.97527301 2.72164011 -0.54219699
v -0.97207099 2.72623992 -0.54046398
v -0.97048199 2.72319007 -0.54521602
v -0.97048199 2.72319007 -0.54521602
v -1.03355503 2.77294993 -0.58573002
v -1.03097498 2.77706003 -0.58437902
v -1.02986205 2.77467990 -0.58866697
v -1.02986205 2.77467990 -0.58866697
v -1.08351600 2.81912994 -0.63719600
v -1.08134604 2.82275009 -0.63609302
v -1.08002603 2.82036996 -0.63950002
v -1.08002603 2.82036996 -0.63950002
v -1.12946105 2.86211991 -0.68853700
v -1.12740397 2.86558008 -0.68749899
v -1.12606299 2.86324000 -0.69066298
v -1.12606299 2.86324000 -0.69066298
v -0.93505698 2.45644999 -0.45669401
v -0.93502200 2.46433997 -0.45719400
v -0.93137997 2.46002007 -0.46272299
v -0.93137997 2.46002007 -0.46272299
v -1.02614701 2.46321011 -0.48910099
v -1.02561200 2.47005010 -0.48928800
v -1.02392805 2.46633005 -0.49480501
v -1.02392805 2.46633005 -0.49480501
v -1.10866201 2.44823003 -0.53083998
v -1.10941505 2.45406008 -0.53151703
v -1.10671103 2.45091009 -0.53574097
v -1.10671103 2.45091009 -0.53574097
v -1.19018495 2.43522000 -0.56537902
v -1.19077897 2.44026995 -0.56593001
v -1.18873298 2.43750000 -0.56971401
v -1.18873298 2.43750000 -0.56971401
v -1.26532602 2.41263008 -0.59749198
v -1.26631999 2.41681004 -0.59816998
v -1.26430500 2.41452003 -0.60127902
v -1.26430500 2.41452003 -0.60127902
v -1.33959198 2.39085007 -0.62215900
v -1.34054804 2.39484000 -0.62280399
v -1.33887196 2.39258003 -0.62586600
v -1.33887196 2.39258003 -0.62586600
v -1.01461005 2.46414995 -0.51300400
v -1.01398098 2.47087002 -0.51303399
v -1.01097000 2.46718001 -0.51780802
v -1.01097000 2.46718001 -0.51780802
v -1.10316002 2.45211005 -0.53249002
v -1.10383499 2.45779991 -0.53304201
v -1.10238194 2.45461988 -0.53761798
v -1.10238194 2.45461988 -0.53761798
v -1.18970001 2.44085002 -0.54988003
v -1.19026697 2.44578004 -0.55035698
v -1.18910897 2.44300008 -0.55434197
v -1.18910897 2.44300008 -0.55434197
v -1.27061403 2.42017007 -0.56537199
v -1.27159095 2.42429996 -0.56587899
v -1.27035499 2.42196989 -0.56924099
v -1.27035499 2.42196989 -0.56924099
v -1.34713495 2.39450002 -0.57507300
v -1.34838498 2.39843011 -0.57560903
v -1.34721196 2.39615989 -0.57888103
v -1.34721196 2.39615989 -0.57888103
v -1.41716003 2.36279011 -0.58396697
v -1.41879594 2.36657000 -0.58455300
v -1.41739595 2.36437988 -0.58779800
v -1.41739595 2.36437988 -0.58779800
v -0.43974099 1.99615002 -0.24478599
v -0.42370200 2.01127005 -0.23658700
v -0.42049199 2.00088000 -0.25744700
v -0.42049199 2.00088000 -0.25744700
v -0.50846302 2.07656002 -0.31023499
v -0.49648201 2.09161997 -0.30480799
v -0.49265200 2.08132005 -0.32152200
v -0.49265200 2.08132005 -0.32152200
v -0.57559401 2.15387988 -0.37242201
v -0.56539100 2.16676998 -0.36781299
v -0.56218499 2.15804005 -0.38212800
v -0.56218499 2.15804005 -0.38212800
v -0.64822698 2.22199011 -0.42735902
v -0.64010900 2.23369002 -0.42391899
v -0.63753402 2.22638988 -0.43635800
v -0.63753402 2.22638988 -0.43635800
v -0.71662497 2.28398991 -0.48924899
v -0.70986801 2.29438996 -0.48649201
v -0.70693898 2.28743005 -0.49670601
v -0.70693898 2.28743005 -0.49670601
v -0.79657602 2.32326007 -0.54407001
v -0.79249000 2.33324003 -0.54302698
v -0.78969598 2.32710004 -0.55150598
v -0.78969598 2.32710004 -0.55150598
vt 0.72341001 2.80703998
vt 1.22341001 2.80703998
vt 1.72341001 2.80703998
vt 2.22340989 2.80703998
vt 2.72340989 2.80703998
vt 0.22341000 2.80703998
vt 3.22340989 2.80703998
vt 3.22340989 3.57665992
vt 0.22341000 3.57665992
vt 0.82340998 3.57665992
vt 1.42341006 3.57665992
vt 2.02341008 3.57665992
vt 2.62340999 3.57665992
vt 0.82340998 4.43563986
vt 1.42341006 4.43563986
vt 2.02341008 4.43563986
vt 2.62340999 4.43563986
vt 0.22341000 4.43563986
vt 3.22340989 4.43563986
vt 0.82340998 5.39032984
vt 1.42341006 5.39032984
vt 2.02341008 5.39032984
vt 2.62340999 5.39032984
vt 3.22340989 5.39032984
vt 0.22341000 5.39032984
vt 0.22341000 6.45459986
vt 3.22340989 6.45459986
vt 0.97341001 6.45459986
vt 1.72341001 6.45459986
vt 2.47340989 6.45459986
vt 0.97341001 7.65473986
vt 1.72341001 7.65473986
vt 2.47340989 7.65473986
vt 3.22340989 7.65473986
vt 0.22341000 7.65473986
vt 3.22340989 0.92240000
vt 0.22341000 0.92240000
vt 0.59841001 0.92240000
vt 0.22341000 1.48606002
vt 3.22340989 1.48606002
vt 0.97341001 0.92240000
vt 0.65197998 1.48606002
vt 1.34841001 0.92240000
vt 1.08054996 1.48606002
vt 1.72341001 0.92240000
vt 1.50911999 1.48606002
vt 2.09840989 0.92240000
vt 1.93769002 1.48606002
vt 2.47340989 0.92240000
vt 2.36626005 1.48606002
vt 2.84840989 0.92240000
vt 2.79483008 1.48606002
vt 0.22341000 2.11378002
vt 3.22340989 2.11378002
vt 0.72341001 2.11378002
vt 1.22341001 2.11378002
vt 1.72341001 2.11378002
vt 2.22340989 2.11378002
vt 2.72340989 2.11378002
vt 0.72341001 2.80703998
vt 1.22341001 2.80703998
vt 1.72341001 2.80703998
vt 2.22340989 2.80703998
vt 2.72340989 2.80703998
vt 0.22341000 2.80703998
vt 3.22340989 2.80703998
vt 0.82340998 4.46881008
vt 1.42341006 4.46881008
vt 2.02341008 4.46881008
vt 2.62340999 4.46881008
vt 3.22340989 4.46881008
vt 0.22341000 4.46881008
vt 3.22340989 5.44752979
vt 0.22341000 5.44752979
vt 0.97341001 5.44752979
vt 1.72341001 5.44752979
vt 2.47340989 5.44752979
vt 0.97341001 6.54029989
vt 1.72341001 6.54029989
vt 2.47340989 6.54029989
vt 3.22340989 6.54029989
vt 0.22341000 6.54029989
vt 0.97341001 7.76186991
vt 1.72341001 7.76186991
vt 2.47340989 7.76186991
vt 0.22341000 7.76186991
vt 3.22340989 7.76186991
vt 0.97341001 9.12812996
vt 1.72341001 9.12812996
vt 2.47340989 9.12812996
vt 0.22341000 9.12812996
vt 3.22340989 9.12812996
vt 3.22340989 10.64445020
vt 0.22341000 10.64445020
vt 1.22341001 10.64445020
vt 2.22340989 10.64445020
vt 0.82340998 4.46881008
vt 1.42341006 4.46881008
vt 2.02341008 4.46881008
vt 2.62340999 4.46881008
vt 3.22340989 4.46881008
vt 0.22341000 4.46881008
vt 0.22341000 5.44547987
vt 3.22340989 5.44547987
vt 0.97341001 5.44547987
vt 1.72341001 5.44547987
vt 2.47340989 5.44547987
vt 0.97341001 6.54674006
vt 1.72341001 6.54674006
vt 2.47340989 6.54674006
vt 3.22340989 6.54674006
vt 0.22341000 6.54674006
vt 0.97341001 7.78039980
vt 1.72341001 7.78039980
vt 2.47340989 7.78039980
vt 3.22340989 7.78039980
vt 0.22341000 7.78039980
vt 0.97341001 9.16458035
vt 1.72341001 9.16458035
vt 2.47340989 9.16458035
vt 3.22340989 9.16458035
vt 0.22341000 9.16458035
vt 1.22341001 31.72551920
vt 2.22340989 31.72551920
vt 0.22341000 31.72551920
vt 3.22340989 31.72551920
vt 1.22341001 35.98952870
vt 2.22340989 35.98952870
vt 0.22341000 35.98952870
vt 3.22340989 35.98952870
vt 1.22341001 40.70304110
vt 2.22340989 40.70304110
vt 3.22340989 40.70304110
vt 0.22341000 40.70304110
vt 1.22341001 45.94594960
vt 2.22340989 45.94594960
vt 3.22340989 45.94594960
vt 0.22341000 45.94594960
vt 1.22341001 51.77310940
vt 2.22340989 51.77310940
vt 3.22340989 51.77310940
vt 0.22341000 51.77310940
vt 1.22341001 58.32273860
vt 2.22340989 58.32273860
vt 0.22341000 58.32273860
vt 3.22340989 58.32273860
vt 1.22341001 40.72632980
vt 2.22340989 40.72632980
vt 0.22341000 40.72632980
vt 3.22340989 40.72632980
vt 1.22341001 46.04270170
vt 2.22340989 46.04270170
vt 3.22340989 46.04270170
vt 0.22341000 46.04270170
vt 1.22341001 51.95111850
vt 2.22340989 51.95111850
vt 3.22340989 51.95111850
vt 0.22341000 51.95111850
vt 1.22341001 58.49631880
vt 2.22340989 58.49631880
vt 0.22341000 58.49631880
vt 3.22340989 58.49631880
vt 1.22341001 65.88435360
vt 2.22340989 65.88435360
vt 0.22341000 65.88435360
vt 3.22340989 65.88435360
vt 1.22341001 73.75659940
vt 2.22340989 73.75659940
vt 3.22340989 73.75659940
vt 0.22341000 73.75659940
vt 1.22341001 41.09532170
vt 2.22340989 41.09532170
vt 0.22341000 41.09532170
vt 3.22340989 41.09532170
vt 1.22341001 46.55162810
vt 2.22340989 46.55162810
vt 0.22341000 46.55162810
vt 3.22340989 46.55162810
vt 1.22341001 52.60066990
vt 2.22340989 52.60066990
vt 3.22340989 52.60066990
vt 0.22341000 52.60066990
vt 1.22341001 59.38608930
vt 2.22340989 59.38608930
vt 3.22340989 59.38608930
vt 0.22341000 59.38608930
vt 1.22341001 66.88987730
vt 2.22340989 66.88987730
vt 0.22341000 66.88987730
vt 3.22340989 66.88987730
vt 1.22341001 74.77498630
vt 2.22340989 74.77498630
vt 3.22340989 74.77498630
vt 0.22341000 74.77498630
vt 1.22341001 41.06927870
vt 2.22340989 41.06927870
vt 0.22341000 41.06927870
vt 3.22340989 41.06927870
vt 1.22341001 46.50519180
vt 2.22340989 46.50519180
vt 0.22341000 46.50519180
vt 3.22340989 46.50519180
vt 1.22341001 52.59756850
vt 2.22340989 52.59756850
vt 3.22340989 52.59756850
vt 0.22341000 52.59756850
vt 1.22341001 59.31301120
vt 2.22340989 59.31301120
vt 3.22340989 59.31301120
vt 0.22341000 59.31301120
vt 1.22341001 66.74681090
vt 2.22340989 66.74681090
vt 3.22340989 66.74681090
vt 0.22341000 66.74681090
vt 1.22341001 74.64930730
vt 2.22340989 74.64930730
vt 3.22340989 74.64930730
vt 0.22341000 74.64930730
vt 1.22341001 46.55447010
vt 2.22340989 46.55447010
vt 0.22341000 46.55447010
vt 3.22340989 46.55447010
vt 1.22341001 52.69865040
vt 2.22340989 52.69865040
vt 0.22341000 52.69865040
vt 3.22340989 52.69865040
vt 1.22341001 59.55062100
vt 2.22340989 59.55062100
vt 0.22341000 59.55062100
vt 3.22340989 59.55062100
vt 1.22341001 67.15905000
vt 2.22340989 67.15905000
vt 0.22341000 67.15905000
vt 3.22340989 67.15905000
vt 1.22341001 75.14993290
vt 2.22340989 75.14993290
vt 0.22341000 75.14993290
vt 3.22340989 75.14993290
vt 1.22341001 82.86699680
vt 2.22340989 82.86699680
vt 0.22341000 82.86699680
vt 3.22340989 82.86699680
vt 1.22341001 16.32514000
vt 2.22340989 16.32514000
vt 0.22341000 16.32514000
vt 3.22340989 16.32514000
vt 1.22341001 18.71995930
vt 2.22340989 18.71995930
vt 0.22341000 18.71995930
vt 3.22340989 18.71995930
vt 1.22341001 21.39451980
vt 2.22340989 21.39451980
vt 0.22341000 21.39451980
vt 3.22340989 21.39451980
vt 1.22341001 24.38348960
vt 2.22340989 24.38348960
vt 0.22341000 24.38348960
vt 3.22340989 24.38348960
vt 1.22341001 27.74201970
vt 2.22340989 27.74201970
vt 0.22341000 27.74201970
vt 3.22340989 27.74201970
vt 1.22341001 31.47814940
vt 2.22340989 31.47814940
vt 0.22341000 31.47814940
vt 3.22340989 31.47814940
f 6/6 1/1 9/9
f 1/1 2/2 10/10
f 2/2 3/3 11/11
f 3/3 4/4 12/12
f 4/4 5/5 13/13
f 5/5 7/7 8/8
f 9/9 1/1 10/10
f 10/10 2/2 11/11
f 11/11 3/3 12/12
f 12/12 4/4 13/13
f 13/13 5/5 8/8
f 9/9 10/10 14/14
f 10/10 11/11 15/15
f 11/11 12/12 16/16
f 12/12 13/13 17/17
f 13/13 8/8 19/19
f 18/18 9/9 14/14
f 14/14 10/10 15/15
f 15/15 11/11 16/16
f 16/16 12/12 17/17
f 17/17 13/13 19/19
f 18/18 14/14 20/20
f 14/14 15/15 21/21
f 15/15 16/16 22/22
f 16/16 17/17 23/23
f 17/17 19/19 24/24
f 25/25 18/18 20/20
f 20/20 14/14 21/21
f 21/21 15/15 22/22
f 22/22 16/16 23/23
f 23/23 17/17 24/24
f 25/25 20/20 26/26
f 20/20 21/21 28/28
f 21/21 22/22 29/29
f 22/22 23/23 30/30
f 23/23 24/24 27/27
f 26/26 20/20 28/28
f 28/28 21/21 29/29
f 29/29 22/22 30/30
f 30/30 23/23 27/27
f 26/26 28/28 31/31
f 28/28 29/29 32/32
f 29/29 30/30 33/33
f 30/30 27/27 34/34
f 35/35 26/26 31/31
f 31/31 28/28 32/32
f 32/32 29/29 33/33
f 33/33 30/30 34/34
f 37/37 38/38 39/39
f 38/38 41/41 42/42
f 41/41 43/43 44/44
f 43/43 45/45 46/46
f 45/45 47/47 48/48
f 47/47 49/49 50/50
f 49/49 51/51 52/52
f 51/51 36/36 40/40
f 39/39 38/38 42/42
f 42/42 41/41 44/44
f 44/44 43/43 46/46
f 46/46 45/45 48/48
f 48/48 47/47 50/50
f 50/50 49/49 52/52
f 52/52 51/51 40/40
f 39/39 42/42 53/53
f 42/42 44/44 55/55
f 44/44 46/46 56/56
f 46/46 48/48 57/57
f 48/48 50/50 58/58
f 50/50 52/52 59/59
f 52/52 40/40 54/54
f 53/53 42/42 55/55
f 55/55 44/44 56/56
f 56/56 46/46 57/57
f 57/57 48/48 58/58
f 58/58 50/50 59/59
f 59/59 52/52 54/54
f 53/53 55/55 60/60
f 55/55 56/56 61/61
f 56/56 57/57 62/62
f 57/57 58/58 63/63
f 58/58 59/59 64/64
f 59/59 54/54 66/66
f 65/65 53/53 60/60
f 60/60 55/55 61/61
f 61/61 56/56 62/62
f 62/62 57/57 63/63
f 63/63 58/58 64/64
f 64/64 59/59 66/66
f 72/72 67/67 74/74
f 67/67 68/68 75/75
f 68/68 69/69 76/76
f 69/69 70/70 77/77
f 70/70 71/71 73/73
f 74/74 67/67 75/75
f 75/75 68/68 76/76
f 76/76 69/69 77/77
f 77/77 70/70 73/73
f 74/74 75/75 78/78
f 75/75 76/76 79/79
f 76/76 77/77 80/80
f 77/77 73/73 81/81
f 82/82 74/74 78/78
f 78/78 75/75 79/79
f 79/79 76/76 80/80
f 80/80 77/77 81/81
f 82/82 78/78 83/83
f 78/78 79/79 84/84
f 79/79 80/80 85/85
f 80/80 81/81 87/87
f 86/86 82/82 83/83
f 83/83 78/78 84/84
f 84/84 79/79 85/85
f 85/85 80/80 87/87
f 86/86 83/83 88/88
f 83/83 84/84 89/89
f 84/84 85/85 90/90
f 85/85 87/87 92/92
f 91/91 86/86 88/88
f 88/88 83/83 89/89
f 89/89 84/84 90/90
f 90/90 85/85 92/92
f 91/91 88/88 94/94
f 88/88 89/89 95/95
f 89/89 90/90 96/96
f 90/90 92/92 93/93
f 94/94 88/88 95/95
f 95/95 89/89 96/96
f 96/96 90/90 93/93
f 102/102 97/97 103/103
f 97/97 98/98 105/105
f 98/98 99/99 106/106
f 99/99 100/100 107/107
f 100/100 101/101 104/104
f 103/103 97/97 105/105
f 105/105 98/98 106/106
f 106/106 99/99 107/107
f 107/107 100/100 104/104
f 103/103 105/105 108/108
f 105/105 106/106 109/109
f 106/106 107/107 110/110
f 107/107 104/104 111/111
f 112/112 103/103 108/108
f 108/108 105/105 109/109
f 109/109 106/106 110/110
f 110/110 107/107 111/111
f 112/112 108/108 113/113
f 108/108 109/109 114/114
f 109/109 110/110 115/115
f 110/110 111/111 116/116
f 117/117 112/112 113/113
f 113/113 108/108 114/114
f 114/114 109/109 115/115
f 115/115 110/110 116/116
f 117/117 113/113 118/118
f 113/113 114/114 119/119
f 114/114 115/115 120/120
f 115/115 116/116 121/121
f 122/122 117/117 118/118
f 118/118 113/113 119/119
f 119/119 114/114 120/120
f 120/120 115/115 121/121
f 125/125 123/123 127/127
f 123/123 124/124 128/128
f 124/124 126/126 130/130
f 129/129 125/125 127/127
f 127/127 123/123 128/128
f 128/128 124/124 130/130
f 129/129 127/127 131/131
f 127/127 128/128 132/132
f 128/128 130/130 133/133
f 134/134 129/129 131/131
f 131/131 127/127 132/132
f 132/132 128/128 133/133
f 134/134 131/131 135/135
f 131/131 132/132 136/136
f 132/132 133/133 137/137
f 138/138 134/134 135/135
f 135/135 131/131 136/136
f 136/136 132/132 137/137
f 138/138 135/135 139/139
f 135/135 136/136 140/140
f 136/136 137/137 141/141
f 142/142 138/138 139/139
f 139/139 135/135 140/140
f 140/140 136/136 141/141
f 142/142 139/139 143/143
f 139/139 140/140 144/144
f 140/140 141/141 146/146
f 145/145 142/142 143/143
f 143/143 139/139 144/144
f 144/144 140/140 146/146
f 149/149 147/147 151/151
f 147/147 148/148 152/152
f 148/148 150/150 153/153
f 154/154 149/149 151/151
f 151/151 147/147 152/152
f 152/152 148/148 153/153
f 154/154 151/151 155/155
f 151/151 152/152 156/156
f 152/152 153/153 157/157
f 158/158 154/154 155/155
f 155/155 151/151 156/156
f 156/156 152/152 157/157
f 158/158 155/155 159/159
f 155/155 156/156 160/160
f 156/156 157/157 162/162
f 161/161 158/158 159/159
f 159/159 155/155 160/160
f 160/160 156/156 162/162
f 161/161 159/159 163/163
f 159/159 160/160 164/164
f 160/160 162/162 166/166
f 165/165 161/161 163/163
f 163/163 159/159 164/164
f 164/164 160/160 166/166
f 165/165 163/163 167/167
f 163/163 164/164 168/168
f 164/164 166/166 169/169
f 170/170 165/165 167/167
f 167/167 163/163 168/168
f 168/168 164/164 169/169
f 173/173 171/171 175/175
f 171/171 172/172 176/176
f 172/172 174/174 178/178
f 177/177 173/173 175/175
f 175/175 171/171 176/176
f 176/176 172/172 178/178
f 177/177 175/175 179/179
f 175/175 176/176 180/180
f 176/176 178/178 181/181
f 182/182 177/177 179/179
f 179/179 175/175 180/180
f 180/180 176/176 181/181
f 182/182 179/179 183/183
f 179/179 180/180 184/184
f 180/180 181/181 185/185
f 186/186 182/182 183/183
f 183/183 179/179 184/184
f 184/184 180/180 185/185
f 186/186 183/183 187/187
f 183/183 184/184 188/188
f 184/184 185/185 190/190
f 189/189 186/186 187/187
f 187/187 183/183 188/188
f 188/188 184/184 190/190
f 189/189 187/187 191/191
f 187/187 188/188 192/192
f 188/188 190/190 193/193
f 194/194 189/189 191/191
f 191/191 187/187 192/192
f 192/192 188/188 193/193
f 197/197 195/195 199/199
f 195/195 196/196 200/200
f 196/196 198/198 202/202
f 201/201 197/197 199/199
f 199/199 195/195 200/200
f 200/200 196/196 202/202
f 201/201 199/199 203/203
f 199/199 200/200 204/204
f 200/200 202/202 205/205
f 206/206 201/201 203/203
f 203/203 199/199 204/204
f 204/204 200/200 205/205
f 206/206 203/203 207/207
f 203/203 204/204 208/208
f 204/204 205/205 209/209
f 210/210 206/206 207/207
f 207/207 203/203 208/208
f 208/208 204/204 209/209
f 210/210 207/207 211/211
f 207/207 208/208 212/212
f 208/208 209/209 213/213
f 214/214 210/210 211/211
f 211/211 207/207 212/212
f 212/212 208/208 213/213
f 214/214 211/211 215/215
f 211/211 212/212 216/216
f 212/212 213/213 217/217
f 218/218 214/214 215/215
f 215/215 211/211 216/216
f 216/216 212/212 217/217
f 221/221 219/219 223/223
f 219/219 220/220 224/224
f 220/220 222/222 226/226
f 225/225 221/221 223/223
f 223/223 219/219 224/224
f 224/224 220/220 226/226
f 225/225 223/223 227/227
f 223/223 224/224 228/228
f 224/224 226/226 230/230
f 229/229 225/225 227/227
f 227/227 223/223 228/228
f 228/228 224/224 230/230
f 229/229 227/227 231/231
f 227/227 228/228 232/232
f 228/228 230/230 234/234
f 233/233 229/229 231/231
f 231/231 227/227 232/232
f 232/232 228/228 234/234
f 233/233 231/231 235/235
f 231/231 232/232 236/236
f 232/232 234/234 238/238
f 237/237 233/233 235/235
f 235/235 231/231 236/236
f 236/236 232/232 238/238
f 237/237 235/235 239/239
f 235/235 236/236 240/240
f 236/236 238/238 242/242
f 241/241 237/237 239/239
f 239/239 235/235 240/240
f 240/240 236/236 242/242
f 245/245 243/243 247/247
f 243/243 244/244 248/248
f 244/244 246/246 250/250
f 249/249 245/245 247/247
f 247/247 243/243 248/248
f 248/248 244/244 250/250
f 249/249 247/247 251/251
f 247/247 248/248 252/252
f 248/248 250/250 254/254
f 253/253 249/249 251/251
f 251/251 247/247 252/252
f 252/252 248/248 254/254
f 253/253 251/251 255/255
f 251/251 252/252 256/256
f 252/252 254/254 258/258
f 257/257 253/253 255/255
f 255/255 251/251 256/256
f 256/256 252/252 258/258
f 257/257 255/255 259/259
f 255/255 256/256 260/260
f 256/256 258/258 262/262
f 261/261 257/257 259/259
f 259/259 255/255 260/260
f 260/260 256/256 262/262
f 261/261 259/259 263/263
f 259/259 260/260 264/264
f 260/260 262/262 266/266
f 265/265 261/261 263/263
f 263/263 259/259 264/264
f 264/264 260/260 266/266

o canopy
v -1.17027795 2.89608002 -0.17323899
v -0.83849901 2.95949006 -0.14635800
v -1.21845400 2.91153002 -0.16211601
v -1.47211599 2.33052993 -0.64634103
v -1.69687700 2.13898993 -0.45668200
v -1.63846745 2.21885961 -0.66531426
v -1.80802596 1.96809006 -0.67620802
v -1.26212204 2.41563010 -0.59750098
v -1.41102287 2.29317358 -0.68008954
v -1.32949400 2.18319011 -0.87494803
v -1.54177999 2.00224996 -0.75423902
v -1.10521805 2.45160007 -0.53112602
v -1.24411464 2.36077346 -0.65158644
v -1.15790105 2.35148001 -0.89051700
v -1.39224601 2.10214996 -0.78184003
v -1.36193299 2.34630990 -0.94396299
v -1.46189916 2.23190876 -1.07571760
v -1.32912195 2.11605000 -1.18099403
v -1.56396496 1.96970999 -1.19501400
v -1.27192402 2.39352012 -0.83606303
v -1.40251749 2.32669568 -0.99825651
v -1.60860705 2.28399992 -0.88894999
v -1.53862095 2.08958006 -1.18299103
v -1.32000697 2.34232998 -0.87686098
v -1.65919304 2.25131989 -0.90097398
v -1.45476678 2.22447025 -0.97798667
v -1.59652495 1.97063005 -1.08703804
v -1.27018499 2.37707996 -0.82957500
v -1.38761902 2.22949004 -1.15703297
v -1.41858083 2.26563769 -0.92927743
v -1.56944203 1.99147999 -1.02956700
v -1.21432900 2.40774012 -0.78408098
v -1.32561082 2.31369715 -0.93681204
v -1.18231702 2.20371008 -1.09056699
v -1.42784500 2.03365993 -1.07861996
v -1.52214205 2.27667999 -0.62229198
v -1.71701396 2.10541010 -0.86648399
v -1.65248991 2.12157527 -0.65051227
v -1.76733303 1.82600999 -0.67329001
v -1.47999406 2.33154988 -0.57957500
v -1.65631754 2.21059795 -0.57055976
v -1.72559404 2.16176009 -0.35742301
v -1.84491801 1.94772995 -0.56002897
v -1.50540948 2.22215998 -0.52106451
v -1.59275496 2.16146994 -0.84410697
v -1.58660884 2.25310471 -0.59551768
v -1.75454795 1.97836006 -0.60391301
v -1.26738906 2.42312002 -0.56609702
v -1.53300297 2.29352999 -0.32602000
v -1.45087402 2.32481694 -0.57560132
v -1.63907802 2.05531001 -0.58745301
v -1.09926295 2.45546007 -0.53338098
v -1.27504857 2.35655615 -0.61020073
v -1.19840896 2.27877998 -0.82269502
v -1.45460701 2.09410000 -0.67902601
v -0.84543598 2.46278000 -0.40324199
v -1.05725162 2.48345720 -0.45186331
v -1.16526306 2.36627007 -0.30740601
v -1.26633555 2.36648011 -0.56667250
v -1.10461998 2.42197990 -0.73806202
v -1.28996475 2.39211211 -0.85281635
v -1.43271601 2.28205991 -0.72600400
v -1.42451548 2.20332003 -1.01316649
v -1.03040898 2.41248012 -0.68903798
v -1.19170828 2.40481725 -0.82960089
v -1.08727205 2.37178993 -1.02760994
v -1.39859104 2.23210001 -0.99640900
v -0.95304602 2.39477992 -0.63977701
v -1.14599248 2.41689747 -0.73007126
v -1.28855503 2.22943997 -0.65803802
v -1.21847048 2.36166244 -0.91790675
v -1.11827153 2.31200004 -1.24680650
v -1.43776500 2.30781007 -1.25639796
v -1.21723933 2.36762048 -1.30016838
v -1.28767502 2.13047004 -1.48524201
v -1.12109494 2.45190001 -1.05242598
v -1.21728254 2.40975832 -1.24464858
v -1.44815695 2.35855007 -1.18589902
v -1.32116401 2.17034006 -1.45501697
v -0.97451103 2.44111991 -0.85315698
v -1.14293182 2.37102726 -0.96654662
v -1.07503498 2.25115991 -1.14228499
v -1.31468296 2.11455011 -1.08126295
v -0.92904502 2.47918010 -0.95296598
v -0.94783289 2.46084453 -1.17187692
v -1.13985205 2.34430003 -1.23241901
v -0.96921402 2.22374010 -1.41001296
v -0.65478897 2.84346008 -1.02301204
v -0.34743199 2.90170002 -1.23398900
v -0.58632690 2.85756655 -1.23046835
v -0.49215901 2.68216991 -1.49525595
v -1.15075099 2.57781005 -1.29416001
v -1.27595170 2.45438781 -1.39271385
v -1.16617501 2.39791989 -1.57386601
v -1.39786100 2.18593001 -1.47813296
v -0.97234798 2.57703996 -1.25710404
v -0.83416897 2.44441009 -1.57531703
v -0.99045156 2.45591501 -1.41660050
v -1.00887704 2.16671991 -1.57213402
v -0.89495701 2.59884000 -1.05215001
v -1.05322763 2.59041344 -1.18478184
v -1.22191298 2.44727993 -1.10078394
v -1.18107199 2.45538998 -1.36225355
v -0.84491402 2.59358001 -0.98376697
v -1.24177802 2.55784011 -1.00473797
v -1.02502641 2.54903983 -1.11246300
v -1.24171495 2.33084989 -1.26918602
v 0.43452701 3.52290010 0.09451700
v 0.56931552 3.69211634 0.05957319
v 0.59436899 3.82195997 0.26996300
v 0.87745100 3.75008011 -0.01906900
v 0.13158800 2.77200007 0.10740300
v -0.11089800 3.04015994 0.05636200
v 0.17019628 2.98226374 0.04770577
v 0.30114999 3.15645003 -0.16974700
v 0.65272498 3.05940008 -0.12207200
v 0.87666398 3.36073995 -0.01976600
v 0.76017071 3.23199799 -0.21401856
v 1.00469601 3.29944992 -0.42524400
v 0.77913499 2.91823006 -0.23474200
v 0.93997326 2.86075606 -0.34401741
v 1.06572998 2.74987006 -0.22857900
v 1.02610952 2.64215505 -0.47560401
v 0.81098401 2.80358005 -0.20762500
v 0.98535699 2.55468011 -0.44408801
v 0.88982821 2.61827313 -0.20914788
v 0.95573801 2.28964996 -0.20918700
v 0.82363999 2.82191992 -0.24262600
v 0.95882922 2.68558059 -0.31617466
v 0.91584200 2.61795998 -0.52238500
v 1.09945905 2.41921997 -0.39393800
v 0.27949101 3.38712001 -0.62473297
v 0.32282976 3.36226029 -0.82839980
v 0.50712299 3.25291991 -0.86878300
v 0.37197399 3.14275002 -1.05695796
v 0.76986599 2.11729002 0.72319299
v 1.12376702 1.95796001 0.80809802
v 0.88724224 1.96483917 0.82580817
v 1.00650203 1.65832996 0.93066698
v 1.08428705 1.99887002 1.26349998
v 1.14166583 1.84736636 1.38711029
v 0.96378797 1.79791999 1.50877094
v 1.20176804 1.56181002 1.49701595
v 1.04778802 2.07851005 1.13979805
v 1.19301440 1.97240528 1.23940718
v 1.13103104 1.89611006 1.43863595
v 1.34052706 1.71187997 1.34133899
v 0.94662201 2.13063002 1.04020202
v 0.99098110 2.02950972 1.22236312
v 0.79995102 2.03648996 1.35286498
v 1.04211903 1.74857998 1.40009701
v 0.96895999 1.98962998 1.38789201
v 0.97828277 1.84756209 1.54626391
v 0.77352101 1.74289000 1.58516204
v 0.98593998 1.56459999 1.70332205
v 0.96371299 2.02589011 1.33080006
v 0.99062239 1.88540824 1.48126347
v 1.13536000 1.72414005 1.41831899
v 0.90307251 1.68864000 1.59050298
v 0.95411301 2.09180999 1.20530701
v 0.78568202 1.99178004 1.52093804
v 1.00833168 2.01466272 1.38514228
v 1.06560397 1.75220001 1.56773901
v 0.99839401 2.00969005 1.06523097
v 1.02624094 1.82765996 1.38553798
v 1.09626391 1.86178362 1.14628521
v 1.18162000 1.55762994 1.21489501
v 1.06994402 2.04210997 1.12440300
v 1.23653342 1.99257617 1.24075844
v 1.42726505 1.92831004 1.07992494
v 1.41299200 1.74351001 1.36256504
v 1.09296704 1.83072001 1.35123497
v 1.41715097 1.78731000 1.34680295
v 1.19755472 1.85073588 1.40208985
v 1.27479804 1.58841002 1.54548502
v 1.04838395 2.00991011 1.13942599
v 1.13966530 1.87894719 1.27276689
v 0.99196202 1.76625001 1.40131104
v 1.22952199 1.60774004 1.40686500
v 1.00585496 2.04097009 1.08214796
v 1.10942387 1.95521518 1.24281089
v 0.96656698 1.92838001 1.41589797
v 1.22622097 1.71715999 1.42268395
v 0.83010399 2.15411997 0.82123703
v 1.17236805 2.05212998 0.80348003
v 0.98137109 2.06059562 0.93126609
v 1.14467001 1.81796002 1.05309296
v 1.00629795 2.17186999 1.13745999
v 1.14425625 2.05173540 1.23400038
v 1.07780397 1.98097003 1.44210804
v 1.27061701 1.76418996 1.32306600
v 0.88318503 2.20777011 1.15025795
v 0.96579389 2.09053119 1.30098808
v 0.81189001 1.97353995 1.39340603
v 1.04611003 1.80676997 1.42758501
v 0.94211551 2.11596000 1.05523753
v 0.79650301 2.15427995 1.37365699
v 0.94732616 2.17467637 1.16070262
v 1.07540798 1.91872001 1.32625902
v 0.70675403 2.25029993 0.77402699
v 0.83083496 2.20283139 0.93609779
v 0.73545998 2.09366012 1.09808600
v 0.98632553 1.99724996 1.04084453
v 1.13192499 2.94579005 0.76510799
v 1.10829421 3.12270977 0.61613299
v 0.86204600 3.13422990 0.60705298
v 1.06083298 3.19197011 0.30786201
v 1.31476796 2.89999008 0.79821497
v 1.51974229 2.92854305 0.82166454
v 1.58998001 2.94036007 0.61223400
v 1.78889203 2.78119993 0.86106700
v 1.32610595 2.83367991 0.95991701
v 1.51869416 2.88000706 1.06113460
v 1.66548002 2.83234000 0.88086301
v 1.77150404 2.75889993 1.20592499
v 1.22190905 2.78209996 0.89321202
v 1.42410409 2.79327119 0.96553067
v 1.44567394 2.66622996 1.17278004
v 1.65636951 2.66299499 0.98887402
v 0.95009202 2.56665993 0.73585200
v 1.05888319 2.63673254 0.92822913
v 0.90928298 2.56967998 1.10979605
v 1.20697701 2.51985002 1.19153404
v 0.85187799 2.44252992 0.65628398
v 1.06182878 2.44813276 0.72685892
v 1.07604897 2.31770992 0.94662899
v 1.29702801 2.30514991 0.74628201
v 0.35953200 2.04231000 0.27995199
v 0.57270003 1.98883171 0.32267476
v 0.59594703 1.84674001 0.53312898
v 0.76017600 1.76481497 0.30224600
v 0.50478202 2.93532991 -0.45418900
v 0.64989481 2.89516765 -0.59217201
v 0.77309001 2.75051999 -0.51581103
v 0.73297501 2.71202004 -0.75617048
v 0.45743799 3.04706001 -0.68068600
v 0.60496136 2.98243225 -0.81538866
v 0.74575001 2.86560011 -0.70873803
v 0.75357401 2.74873996 -0.96470898
v 0.27401501 2.88155007 -0.40764701
v 0.28129696 2.84691764 -0.61831765
v 0.48323000 2.72445989 -0.67799997
v 0.29000899 2.63006997 -0.85385001
v 0.02495300 3.23137999 -0.09768000
v -0.10721854 3.38330447 -0.18130193
v -0.23529799 3.47912002 0.01064800
v -0.37417999 3.40280008 -0.34828100
v 0.97813398 2.98132992 0.69114202
v 1.11567521 2.90823685 0.82858172
v 1.26350999 2.78533006 0.71163601
v 1.24333704 2.64490008 0.95725697
v 1.11528599 2.68415999 -0.08751100
v 1.41758001 2.50833011 -0.06464000
v 1.21202322 2.52162604 -0.14691293
v 1.31943798 2.24649000 -0.20595400
v 1.07981706 2.73323989 -0.06781700
v 1.36696804 2.50348997 -0.11219800
v 1.12619309 2.56278400 -0.15849523
v 1.16427898 2.25608993 -0.23660999
v 1.05821896 2.78707004 -0.03610800
v 1.18556350 2.65701838 -0.11498517
v 1.09361005 2.56837010 -0.33134699
v 1.29873002 2.36687994 -0.18706700
v 0.34959200 2.76481009 0.36560801
v 0.43941101 3.10634995 0.54481697
v 0.47156632 2.96281951 0.38030282
v 0.82863098 2.95223999 0.41846999
v 0.24837600 2.59171009 0.34731999
v 0.25040023 2.69631736 0.55213951
v 0.05447000 2.62820005 0.66251498
v 0.25128201 2.64274001 0.86326700
v 1.06842995 2.81826997 0.32110500
v 1.22143967 2.69208304 0.31396973
v 1.31688201 2.66283011 0.12459300
v 1.37479901 2.42060995 0.30631801
v 0.83995902 2.87981009 0.40088800
v 1.22408104 2.87298989 0.34400901
v 1.01649220 2.83241416 0.50044914
v 1.20534396 2.55900002 0.60892201
v 1.02331603 2.87905002 0.65770400
v 1.02908414 2.87779972 0.87537571
v 0.89696699 2.71203995 0.93968803
v 1.09791500 2.74652493 1.09836548
v 1.02033699 2.86171007 0.58568502
v 1.14024942 2.83821013 0.77514601
v 1.01353502 2.72788000 0.93210602
v 1.26879597 2.58984995 0.97438002
v 0.25749499 2.20592999 0.11276500
v 0.17662430 2.42817011 0.11067960
v 0.19994600 2.42481995 -0.19405600
v 0.00342050 2.43157506 0.35055600
v -0.89434600 2.79052997 0.52663201
v -1.10584813 2.76640465 0.57477949
v -1.20167005 2.65253997 0.40193400
v -1.33071601 2.52920008 0.62740898
v -0.61586797 2.26700997 0.33945400
v -0.68113059 2.45354921 0.44462707
v -0.56325901 2.44703007 0.64753300
v -0.83182400 2.55452991 0.68970102
v -0.47560599 3.28784990 -0.24678600
v -0.55176202 3.39380813 -0.42530320
v -0.77576703 3.32282996 -0.43179300
v -0.66983998 3.34121990 -0.69724297
v -0.72653598 3.03362012 0.23247799
v -1.07866800 3.11195993 0.18870801
v -0.90663627 3.08504903 0.34890608
v -1.15105402 2.94972992 0.51040399
v -0.66489100 3.06514001 0.09360500
v -0.70067875 3.25151422 -0.01430366
v -0.93034500 3.25166011 -0.04301500
v -0.78891200 3.36090994 -0.27698499
v -0.93731898 2.87847996 -0.66763598
v -1.02974794 2.82836835 -0.84658566
v -1.28055203 2.79085994 -0.79501802
v -1.12553000 2.57104993 -1.03086495
v -0.82758403 2.89145994 -0.49338299
v -0.96648468 2.85474838 -0.65016682
v -0.88517201 2.69102001 -0.77067697
v -1.14168746 2.68040502 -0.75491849
v -0.99024999 2.84325004 -0.57945698
v -1.00760557 2.71043548 -0.73723234
v -0.84135097 2.56537008 -0.73477697
v -1.11936152 2.51778495 -0.81771901
v -0.95448601 2.92155004 -0.41230100
v -1.32632005 2.82581997 -0.50208700
v -1.09420808 2.85244077 -0.56820597
v -1.24025798 2.58361006 -0.73351097
v -0.99296200 2.94831991 -0.33528000
v -1.19681505 2.92079347 -0.36900256
v -1.28892696 2.77786994 -0.19451299
v -1.37075651 2.73202992 -0.45346051
v -0.62753200 2.59110999 -0.20262200
v -0.56080902 2.92587996 -0.03259100
v -0.71874046 2.78314905 -0.17134905
v -1.00136602 2.91792989 -0.07584400
v -1.08491695 2.68151999 -0.72222900
v -1.38854206 2.43726993 -0.65657502
v -1.20649666 2.51825109 -0.80008205
v -1.31382203 2.19954991 -0.86959398
v -1.09965706 2.72723007 -0.72409898
v -1.27141801 2.70264105 -0.82778783
v -1.20704997 2.64643002 -1.02402902
v -1.48025799 2.51639009 -0.94293898
v -1.00883049 2.60777510 -0.80231500
v -1.31229699 2.59277010 -0.65181500
v -1.13112698 2.65405120 -0.79398010
v -1.29390299 2.42110991 -0.93661398
v -0.95169699 2.78224993 -0.68381202
v -1.06378087 2.78148422 -0.86813935
v -1.26138997 2.66544008 -0.83420801
v -1.19755995 2.58422995 -1.08442497
v -0.89004600 2.69255996 -0.70955497
v -0.87313007 2.64509872 -0.91306633
v -1.09066296 2.58622003 -0.96237600
v -0.84530997 2.43246007 -1.14069998
v -1.07849002 2.58804989 -0.78138000
v -1.18388020 2.44546050 -0.87836814
v -1.05537498 2.37083006 -1.08355701
v -1.28673995 2.15981007 -0.97594100
v -0.99787301 2.67136002 -0.71637201
v -1.13865131 2.53862131 -0.79087860
v -1.19361901 2.38964009 -0.63887203
v -1.17104352 2.34549499 -0.92451352
v -0.95040500 2.71030998 -0.68406999
v -1.04207894 2.60788550 -0.83495938
v -0.85738099 2.50865006 -0.93877202
v -1.13412297 2.33898997 -0.97100103
v -0.90315700 2.72199011 -0.63054597
v -1.03143221 2.69173795 -0.79908891
v -1.24599004 2.68144011 -0.69586301
v -1.16322601 2.45089006 -0.98795402
v -0.72814399 2.55082011 -0.36085799
v -0.75140039 2.59101172 -0.56974817
v -0.54646802 2.64098001 -0.63948900
v -0.79189497 2.45750999 -0.85583800
v -0.49163401 2.79678988 0.96959400
v -0.70529997 2.63551998 1.23229599
v -0.49397697 2.71228758 1.16534675
v -0.49587601 2.46994996 1.37728298
v -0.29087901 3.02109003 0.67017698
v -0.10507115 3.07601198 0.77459801
v -0.11117400 2.99597001 0.98291898
v 0.14641900 2.96165991 0.91715503
v 0.39627799 3.02258992 -1.40483296
v 0.44549111 2.98866266 -1.60665640
v 0.63832903 2.89304996 -1.62069798
v 0.43768249 2.81036508 -1.80630797
v 0.52206397 2.88635993 -1.13472199
v 0.88840097 2.90042996 -1.09801602
v 0.69017451 2.84940470 -1.23655750
v 0.89744699 2.63913012 -1.36396301
v -0.57111901 3.08204007 -0.34807199
v -0.71646497 3.03715983 -0.20450292
v -0.87712800 2.94341993 -0.30667001
v -0.87568903 2.83598995 -0.03222200
v -0.52494198 3.08124995 -0.39487401
v -0.68630290 3.03787472 -0.26316528
v -0.60355902 2.94446993 -0.06706500
v -0.86029798 2.80873990 -0.11996100
v -0.47230101 3.07816005 -0.44121098
v -0.64012703 3.05914023 -0.29357950
v -0.56968999 2.91427994 -0.12742700
v -0.82423198 2.83008003 -0.13198900
v -0.29555850 2.77344000 -0.77591750
v -0.38840852 2.87287146 -0.67429172
v -0.52770400 2.75899005 -0.52367002
v -0.60688014 3.16361855 -1.11862906
v -0.78541702 3.06217003 -1.06467795
v -0.59563750 3.08089000 -1.14816049
v -0.41029741 2.99712356 -0.82229678
v -0.50592899 2.89364004 -0.98466498
v -0.43274024 2.90502256 -0.79555175
v -0.33058101 3.04432011 -1.03845704
v -0.44097024 2.99361705 -1.20151363
v -0.31832099 2.87213993 -1.35773206
v -0.57093850 2.77757001 -1.30025554
v -0.55003409 3.15718614 -1.16894080
v -0.72998798 3.13877010 -1.05214405
v -0.47998349 3.04765999 -1.18199402
v -0.41279750 3.05477500 -0.98037398
v -0.31970399 3.15275590 -1.08996498
v -0.26024899 3.06133008 -1.28935504
v -0.29404301 2.99527001 -1.17052197
v -0.34500999 2.93110498 -1.36347187
v -0.15720201 2.80644011 -1.44509804
v -0.39274099 2.67266989 -1.55127203
v -0.27369201 2.99382997 -1.10181105
v -0.35855328 2.93548087 -1.28519538
v -0.20829600 2.84548998 -1.40574098
v -0.45285600 2.68372011 -1.46387005
v -0.21210349 2.76286495 -0.86751649
v -0.30957103 2.85826615 -0.83421229
v -0.52246600 2.76400494 -0.76260200
v 0.04263000 2.24716997 -0.51361698
v -0.12569200 2.54439998 -0.68527502
v 0.10238742 2.46062281 -0.53347531
v 0.36061099 2.65969992 -0.61863601
v 0.04536400 2.14527011 -0.45251301
v 0.06382270 2.21541091 -0.67496258
v 0.27894601 2.10823989 -0.72246897
v 0.07737100 2.09033990 -0.97359103
v 0.32564500 3.07972002 -0.40355399
v 0.33508881 3.24177500 -0.25453235
v 0.26886150 3.20282495 -0.14620150
v 0.43597651 3.28213489 -0.55190301
v 0.39862352 3.37672746 -0.39420305
v 0.48175251 3.35508001 -0.18803000
v 0.35672440 2.92950967 -0.59769531
v 0.56901097 2.87720990 -0.67133599
v 0.25759600 2.83511496 -0.63717476
v 0.64323186 3.01414811 -0.52837009
v 0.78612697 2.92742991 -0.36943099
v 0.67780524 2.92977750 -0.56070822
v 0.34106499 2.73592997 -0.53536200
v 0.30134800 3.02119994 -0.76024997
v 0.44351782 2.90396044 -0.60620448
v 0.69311100 2.97568011 -0.77722299
v 0.41688042 2.85602826 -0.51306128
v 0.42494500 2.87597990 -0.78752601
v 0.47108100 2.73708743 -0.46753176
v 0.43379201 2.56627500 -0.54801950
v 0.40670032 2.68197190 -0.63443032
v 0.33180299 2.63070011 -0.86070001
v 0.19439401 2.35446000 -0.47328100
v 0.17247000 2.59895992 -0.73320597
v 0.24904440 2.57131409 -0.47183189
v 0.44978401 2.65660000 -0.33610800
v 0.25723550 2.12841499 -0.31802449
v 0.33268828 2.19397878 -0.44989042
v 0.42119601 2.05124998 -0.63549203
v 0.17637850 2.02422499 -0.52931550
v 0.09657320 2.10531379 -0.60546362
v -0.13147400 1.96899998 -0.72321999
v 0.02173400 1.94415498 -0.51760399
v -0.07226108 2.06027637 -0.51468075
v -0.32907700 2.02293992 -0.47966099
v 0.48859099 2.79861999 0.41335499
v 0.61531489 2.79343778 0.57532996
v 0.47908500 2.69016004 0.72162098
v 0.76921803 2.60719991 0.75697499
v 0.31067100 3.03827000 0.75146198
v 0.36406523 2.97882838 0.95113716
v 0.19358100 2.88687992 1.04532802
v 0.43396199 2.75283003 1.16981602
v 0.29211155 3.05934792 0.89071873
v 0.48510501 3.01056004 0.96727300
v 0.22721799 2.96268499 0.83133700
v 0.28436402 2.75279999 0.38458699
v 0.37692204 2.88920766 0.53002596
v 0.45833701 2.88535500 0.77192700
v 0.17939800 2.25816989 0.67449403
v 0.08705700 2.07880998 1.00679302
v 0.26073461 2.16248704 0.85646556
v 0.34847000 1.90700996 1.05145299
v 0.10886800 2.34704995 0.44651601
v 0.16288254 2.27555846 0.65270181
v 0.21353599 1.99758005 0.84924501
v -0.33506399 2.11074996 0.76140702
v -0.52742797 1.90320003 0.97217202
v -0.41456587 1.93419128 0.78205064
v -0.49628100 1.63863003 0.80750400
v -0.30125400 2.16745996 0.75576699
v -0.42874653 2.01101367 0.77767000
v -0.47473201 1.99190998 0.99119997
v -0.54509801 1.71818995 0.79049802
v 0.10904551 2.83616495 -0.07979250
v 0.03487075 2.96073682 -0.17231580
v -0.01962200 2.91146994 -0.42801401
v -0.05283850 3.39166009 0.40924950
v 0.04661159 3.49031854 0.38911556
v 0.26966500 3.42785001 0.32060599
v -0.05700800 3.39460993 0.18082100
v 0.04965981 3.56037685 0.07209347
v 0.06337550 3.53088999 -0.06065900
v 0.06371250 3.33266008 0.15043600
v 0.00438740 3.46246832 0.23448293
v 0.02984000 3.46062994 0.46878549
v -0.57865717 3.31234032 0.17300227
v -0.63283402 3.21803999 -0.06750000
v -0.52564251 3.22819996 0.25404950
v -0.37288901 3.24673009 0.20472300
v -0.55836892 3.26844970 0.32078678
v -0.71013200 3.16455007 0.19242400
v -0.76932102 3.07043004 0.46638301
v -0.48387448 3.18036496 0.08705550
v -0.53214045 3.25773914 0.21697897
v -0.57121098 3.14094996 0.41956601
v -0.28046101 2.96335866 0.08640745
v -0.42398301 2.94901991 -0.08628100
v -0.23228900 2.84533000 0.15208650
v -0.08217292 2.85046213 0.19978234
v -0.24630301 2.74496007 0.32610899
v 0.04290000 2.73917496 0.11834500
v 0.03344300 2.41088998 0.04007550
v 0.11836360 2.52401919 -0.01143259
v 0.35575449 2.45498002 -0.05782450
v 0.06119300 2.29597497 -0.01004950
v 0.14213854 2.40086783 -0.06903892
v 0.33190501 2.34029007 -0.21935600
v -0.20678051 2.27191997 -0.15335550
v -0.19265294 2.35604773 -0.03362737
v -0.13804100 2.24768996 0.20119400
v 0.40232700 3.10227001 -0.44038150
v 0.50961164 3.22299017 -0.39770966
v 0.75805300 3.16536999 -0.36904600
v 0.64458102 3.09985995 -0.22696701
v 0.84766520 3.05118327 -0.18754332
v 0.92583901 2.94895005 -0.37341899
v 1.07791698 2.83976007 -0.14230700
v 0.91054100 3.18187511 -0.19421400
v 0.96087644 3.25717419 -0.29302436
v 1.01084101 3.13075995 -0.51664698
v 0.70087999 3.16125989 -0.26550001
v 0.90789887 3.17998387 -0.30019932
v 0.99220097 3.15283990 -0.09474300
v 1.16857004 3.01797009 -0.35422200
v 0.54505513 3.14187737 -0.21238251
v 0.58254701 3.23170996 -0.41116199
v 0.56156349 2.99611998 -0.17640700
v 0.16366901 2.57919002 -0.23152401
v 0.31893694 2.76267801 -0.19888615
v 0.43480399 2.71783507 -0.22709250
v 0.31694250 2.52403998 -0.25002000
v 0.26540242 2.64601795 -0.33499523
v 0.18180899 2.61591005 -0.56896198
v 0.22298150 2.15877998 -0.17265550
v 0.27094204 2.23952492 -0.28621793
v 0.32183799 2.11303997 -0.52239901
v 0.28858949 2.92799509 -0.04886150
v 0.40017018 3.03212280 -0.06178355
v 0.65157902 2.95423007 -0.07334700
v 0.35760637 3.00681413 -0.15290739
v 0.58686900 2.96630001 -0.13010700
v 0.36094601 2.93788254 -0.08904151
v 0.25264801 2.87002993 -0.18177951
v 0.36506421 2.93493740 -0.25009803
v 0.56794399 2.87594008 -0.26676801
v 0.51948450 3.01536990 -0.07684300
v 0.44470200 2.95911002 0.09265400
v 0.58376050 2.94015391 0.24930907
v 0.77840102 2.90372992 0.14517000
v 0.73823297 2.73578000 0.43812400
v 0.38292469 2.93909942 0.10914615
v 0.61829001 2.81359005 0.05639000
v 0.28213300 2.86773502 0.09214100
v 0.23456000 2.85780001 -0.13465001
v 0.28829791 2.94486566 0.05609825
v 0.08457700 2.95009995 0.14920899
v 0.37727600 2.86906004 0.33289799
v 0.24883600 3.24918008 -0.31419599
v 0.38429600 3.47549009 -0.58561999
v 0.35861146 3.44780388 -0.30447909
v 0.57028201 3.47579003 -0.25766750
v 0.31172321 3.29685753 -0.38297763
v 0.20750301 3.27259994 -0.60150498
v 0.38394549 3.19251996 -0.33969276
v 0.29325077 3.19547639 -0.17606598
v 0.10855900 3.23057008 -0.00059000
v 0.33992925 3.07587499 -0.18105450
v 0.03111800 3.04064000 -0.22389750
v 0.14755444 3.13501630 -0.13991910
v 0.20774550 3.07090008 0.08547450
v 0.80948504 3.47581209 -0.56967347
v 0.87480497 3.47417998 -0.35028699
v 0.79068852 3.34958994 -0.63629299
v 0.72304049 3.31930506 -0.66787249
v 0.77230274 3.41803732 -0.56287768
v 0.85983300 3.33532000 -0.35843500
v 0.69179147 3.24189496 -0.53020850
v 0.72570014 3.33346791 -0.61326701
v 0.78866449 3.22828495 -0.83127752
v 0.50067101 3.03193497 -0.51791748
v 0.52243788 3.12744145 -0.63330698
v 0.50272202 3.01272988 -0.86122102
v 0.08591500 2.32608009 -0.53122899
v -0.00333595 2.44337051 -0.50939294
v -0.22592800 2.41699004 -0.55934149
f 267 268 269
f 272 271 270
f 272 273 271
f 272 270 273
f 276 275 274
f 275 277 274
f 275 276 277
f 280 279 278
f 279 281 278
f 279 280 281
f 284 283 282
f 283 285 282
f 283 284 285
f 288 287 286
f 287 289 286
f 287 288 289
f 292 291 290
f 292 293 291
f 292 290 293
f 296 295 294
f 296 297 295
f 296 294 297
f 300 299 298
f 299 301 298
f 299 300 301
f 304 303 302
f 304 305 303
f 304 302 305
f 308 307 306
f 307 309 306
f 307 308 309
f 312 311 310
f 312 313 311
f 312 310 313
f 316 315 314
f 316 317 315
f 316 314 317
f 320 319 318
f 319 321 318
f 319 320 321
f 324 323 322
f 323 325 322
f 323 324 325
f 328 327 326
f 327 329 326
f 327 328 329
f 332 331 330
f 331 333 330
f 331 332 333
f 335 337 334
f 336 335 334
f 335 336 337
f 340 339 338
f 340 341 339
f 340 338 341
f 344 343 342
f 343 345 342
f 343 344 345
f 348 347 346
f 347 349 346
f 347 348 349
f 352 351 350
f 351 353 350
f 351 352 353
f 356 355 354
f 357 356 354
f 356 357 355
f 360 359 358
f 359 361 358
f 359 360 361
f 364 363 362
f 364 365 363
f 364 362 365
f 368 367 366
f 367 369 366
f 367 368 369
f 372 371 370
f 372 373 371
f 372 370 373
f 376 375 374
f 375 377 374
f 375 376 377
f 380 379 378
f 380 381 379
f 380 378 381
f 384 383 382
f 385 384 382
f 384 385 383
f 388 387 386
f 387 389 386
f 387 388 389
f 392 391 390
f 392 393 391
f 392 390 393
f 396 395 394
f 395 397 394
f 395 396 397
f 400 399 398
f 399 401 398
f 399 400 401
f 404 403 402
f 404 405 403
f 404 402 405
f 408 407 406
f 407 409 406
f 407 408 409
f 412 411 410
f 411 413 410
f 411 412 413
f 416 415 414
f 415 417 414
f 415 416 417
f 420 419 418
f 419 421 418
f 419 420 421
f 423 425 422
f 424 423 422
f 423 424 425
f 428 427 426
f 429 428 426
f 428 429 427
f 432 431 430
f 432 433 431
f 432 430 433
f 436 435 434
f 435 437 434
f 435 436 437
f 440 439 438
f 440 441 439
f 440 438 441
f 444 443 442
f 443 445 442
f 443 444 445
f 448 447 446
f 447 449 446
f 447 448 449
f 452 451 450
f 452 453 451
f 452 450 453
f 456 455 454
f 455 457 454
f 455 456 457
f 460 459 458
f 459 461 458
f 459 460 461
f 464 463 462
f 464 465 463
f 464 462 465
f 468 467 466
f 467 469 466
f 467 468 469
f 472 471 470
f 471 473 470
f 471 472 473
f 476 475 474
f 475 477 474
f 475 476 477
f 480 479 478
f 479 481 478
f 479 480 481
f 484 483 482
f 483 485 482
f 483 484 485
f 488 487 486
f 487 489 486
f 487 488 489
f 492 491 490
f 491 493 490
f 491 492 493
f 496 495 494
f 495 497 494
f 495 496 497
f 500 499 498
f 499 501 498
f 499 500 501
f 504 503 502
f 503 505 502
f 503 504 505
f 508 507 506
f 507 509 506
f 507 508 509
f 512 511 510
f 511 513 510
f 511 512 513
f 516 515 514
f 515 517 514
f 515 516 517
f 520 519 518
f 520 521 519
f 520 518 521
f 524 523 522
f 524 525 523
f 524 522 525
f 528 527 526
f 527 529 526
f 527 528 529
f 532 531 530
f 532 533 531
f 532 530 533
f 536 535 534
f 535 537 534
f 535 536 537
f 540 539 538
f 539 541 538
f 539 540 541
f 544 543 542
f 545 544 542
f 544 545 543
f 548 547 546
f 547 549 546
f 547 548 549
f 552 551 550
f 551 553 550
f 551 552 553
f 555 557 554
f 556 555 554
f 555 556 557
f 560 559 558
f 559 561 558
f 559 560 561
f 564 563 562
f 563 565 562
f 563 564 565
f 568 567 566
f 567 569 566
f 567 568 569
f 572 571 570
f 573 572 570
f 572 573 571
f 576 575 574
f 575 577 574
f 575 576 577
f 580 579 578
f 579 581 578
f 579 580 581
f 584 583 582
f 583 585 582
f 583 584 585
f 587 589 586
f 588 587 586
f 587 588 589
f 592 591 590
f 593 592 590
f 592 593 591
f 596 595 594
f 595 597 594
f 595 596 597
f 600 599 598
f 600 601 599
f 600 598 601
f 604 603 602
f 604 605 603
f 604 602 605
f 608 607 606
f 607 609 606
f 607 608 609
f 612 611 610
f 612 613 611
f 612 610 613
f 616 615 614
f 615 617 614
f 615 616 617
f 620 619 618
f 619 621 618
f 619 620 621
f 624 623 622
f 623 625 622
f 623 624 625
f 627 629 626
f 628 627 626
f 627 628 629
f 632 631 630
f 631 633 630
f 631 632 633
f 636 635 634
f 635 637 634
f 635 636 637
f 640 639 638
f 639 641 638
f 639 640 641
f 644 643 642
f 644 645 643
f 644 642 645
f 648 647 646
f 647 649 646
f 647 648 649
f 652 651 650
f 651 653 650
f 651 652 653
f 656 655 654
f 657 656 654
f 656 657 655
f 660 659 658
f 659 661 658
f 659 660 661
f 664 663 662
f 663 665 662
f 663 664 665
f 668 667 666
f 667 669 666
f 667 668 669
f 671 672 670
f 671 670 672
f 674 673 675
f 673 674 675
f 677 676 678
f 676 677 678
f 681 680 679
f 680 682 679
f 680 681 682
f 684 683 685
f 683 684 685
f 687 688 686
f 687 686 688
f 691 690 689
f 690 692 689
f 690 691 692
f 695 694 693
f 694 696 693
f 694 695 696
f 698 699 697
f 698 697 699
f 701 702 700
f 702 703 700
f 703 702 701
f 706 705 704
f 705 707 704
f 705 706 707
f 709 710 708
f 710 709 708
f 713 712 711
f 712 713 711
f 715 714 716
f 714 715 716
f 718 717 719
f 717 718 719
f 722 721 720
f 723 722 720
f 722 723 721
f 725 724 726
f 724 725 726
f 728 729 727
f 728 727 729
f 731 732 730
f 732 733 730
f 732 731 733
f 735 736 734
f 735 734 736
f 738 739 737
f 738 737 739
f 741 742 740
f 741 740 742
f 745 744 743
f 744 746 743
f 744 745 746
f 749 748 747
f 748 750 747
f 748 749 750
f 752 751 753
f 751 752 753
f 755 756 754
f 755 754 756
f 759 758 757
f 759 760 758
f 759 757 760
f 762 763 761
f 762 761 763
f 766 765 764
f 766 767 765
f 766 764 767
f 770 769 768
f 769 771 768
f 769 770 771
f 773 774 772
f 773 772 774
f 776 777 775
f 776 775 777
f 779 780 778
f 780 779 778
f 782 783 781
f 782 781 783
f 785 784 786
f 784 785 786
f 789 788 787
f 788 790 787
f 788 789 790
f 792 793 791
f 792 791 793
f 795 794 796
f 794 795 796
f 798 797 799
f 797 798 799
f 801 802 800
f 801 800 802
f 804 805 803
f 804 803 805
f 807 808 806
f 807 806 808
f 810 811 809
f 810 809 811
f 814 813 812
f 813 815 812
f 813 814 815
f 817 818 816
f 817 816 818
f 821 820 819
f 820 822 819
f 820 821 822
f 824 823 825
f 823 824 825
f 827 828 826
f 828 827 826
f 830 831 829
f 830 829 831
f 833 834 832
f 833 832 834
f 836 837 835
f 836 835 837
f 839 838 840
f 838 839 840
f 843 842 841
f 842 844 841
f 842 843 844
f 847 846 845
f 846 848 845
f 846 847 848
f 850 849 851
f 849 850 851
f 854 853 852
f 853 855 852
f 853 854 855
f 858 857 856
f 859 858 856
f 858 859 857
f 861 860 862
f 860 861 862
f 864 863 865
f 863 864 865
f 867 868 866
f 867 866 868
f 870 869 871
f 869 870 871
f 873 874 872
f 873 872 874
f 876 877 875
f 876 875 877
f 879 880 878
f 879 878 880
f 882 883 881
f 882 881 883

